<?xml version="1.0" encoding="UTF-8"?>
<!DOCTYPE svg PUBLIC "-//W3C//DTD SVG 1.1//EN" "http://www.w3.org/Graphics/SVG/1.1/DTD/svg11.dtd">
<!-- Creator: CorelDRAW 2021 (64-Bit) -->
<svg xmlns="http://www.w3.org/2000/svg" xml:space="preserve" width="240px" height="300px" version="1.1" shape-rendering="geometricPrecision" text-rendering="geometricPrecision" image-rendering="optimizeQuality" fill-rule="evenodd" clip-rule="evenodd"
viewBox="0 0 240 300.001"
 xmlns:xlink="http://www.w3.org/1999/xlink"
 xmlns:xodm="http://www.corel.com/coreldraw/odm/2003">
 <g id="Capa_x0020_1">
  <metadata id="CorelCorpID_0Corel-Layer"/>
  <g id="_2569567182080">
   <path fill="#FFFAED" d="M144.08 73.625c-4.876,-6.173 -7.129,-16.067 -8.695,-22.599 -1.565,-6.533 -2.443,-9.704 -1.81,-11.331 0.632,-1.627 2.774,-1.709 -6.33,-1.833 -9.104,-0.125 -29.455,-0.29 -47.787,1.322 -18.333,1.613 -34.646,5.003 -39.384,6.698 -4.737,1.696 2.101,1.696 5.974,4.135 3.872,2.439 4.778,7.318 5.066,13.975 0.288,6.656 -0.043,15.091 0.469,19.25 0.512,4.158 1.865,4.041 -0.051,4.2 -1.916,0.158 -7.103,0.591 -11.563,1.387 -4.459,0.797 -8.193,1.957 -12.02,3.612 -3.829,1.656 -7.752,3.807 -10.718,5.99 -2.967,2.183 -4.979,4.397 -6.39,6.551 -1.411,2.155 -2.222,4.25 -2.36,7.643 -0.14,3.393 0.393,8.086 1.498,12.093 1.106,4.008 2.783,7.332 4.921,10.039 2.138,2.707 4.736,4.798 6.637,7.357 1.901,2.56 3.106,5.59 4.448,7.578 1.342,1.988 2.823,2.936 2.839,5.626 0.017,2.689 -1.429,7.121 -2.182,9.917 -0.752,2.796 -0.81,3.955 -0.615,6.801 0.196,2.847 0.646,7.381 1.901,12.045 1.255,4.663 3.314,9.455 5.286,13.08 1.973,3.625 3.858,6.082 6.797,8.442 2.939,2.36 6.932,4.624 11.832,6.838 4.9,2.215 10.707,4.38 15.559,5.681 4.851,1.3 8.746,1.736 26.036,1.547 17.289,-0.189 47.973,-1.002 65.583,-3.12 17.609,-2.118 22.145,-5.541 26.709,-13.098 4.565,-7.557 9.157,-19.249 11.513,-28.337 2.357,-9.087 2.478,-15.571 0.058,-24.361 -2.42,-8.791 -7.38,-19.889 -13.403,-29.531 -6.023,-9.642 -13.109,-17.828 -16.61,-23.672 -3.502,-5.845 -3.42,-9.348 -7.127,-12.325 -3.708,-2.977 -11.206,-5.428 -16.081,-11.6z"/>
   <path fill="#FFFAED" d="M50.065 77.128l0.461 -10.519c-6.083,-0.907 -10.879,-3.6 -13.753,-7.518 3.481,1.816 5.733,3.977 11.122,5.16 8.911,1.957 19.449,-1.2 26.713,-5.814 5.512,-3.5 5.127,-4.512 8.658,-8.703 5.853,0.553 16.075,12.056 29.306,0.797 3.072,-2.614 10.645,0.743 15.631,0.494 7.007,-0.35 9.512,-2.746 14.132,-5.325 -0.667,2.508 -1.622,3.134 -5.192,4.419l1.653 7.061c23.533,-2.399 28.508,-39.807 1.607,-44.005 -3.974,-0.621 -6.067,-0.202 -9.758,-0.25 -5.035,-0.064 -3.017,-0.622 -6.537,-3.501 -20.849,-17.049 -39.588,1.803 -43.628,3.937 -4.112,2.172 -41.174,-12.918 -56.777,17.404 -11.825,22.98 -1.543,49.497 26.362,46.363z"/>
   <path fill="#DCAB8C" d="M124.47 260.77c2.753,1.041 1.243,-0.399 2.386,2.054l-0.034 20.753c1.31,0.174 3.206,0.076 3.937,0.211 3.621,0.669 1.266,-0.71 2.937,1.585 -2.888,1.899 -6.257,1.457 -9.748,0.909l0.522 -25.512zm49.264 14.569c0,4.11 0.151,9.438 -3.329,10.792 -9.648,3.752 -8.403,-11.436 -7.729,-16.57 0.611,-4.649 0.869,-5.064 3.643,-8.498l4.37 0.206c3.31,4.083 3.045,7.143 3.045,14.07zm-34.913 -14.214c7.535,-0.38 7.217,4.238 7.358,11.701 0.09,4.74 0.978,12.963 -4.654,13.669 -6.773,0.849 -6.984,-6.276 -6.781,-12.002 0.226,-6.396 0.591,-9.34 4.077,-13.368zm-58.895 25.29c-2.309,-1.505 -1.629,-2.408 -1.581,-6.002 0.033,-2.543 0.101,-5.024 0.099,-7.582 -0.006,-10.255 -1.169,-11.018 2.315,-11.478 1.219,3.312 -0.103,5.235 0.753,8.845 0.479,2.017 -0.021,0.748 0.913,1.968l2.498 0.16c1.045,-1.313 0.416,0.043 1.019,-2.087 0.592,-2.088 0.04,0.604 0.294,-1.587 0.095,-0.816 -0.073,-2.499 -0.06,-3.403 0.056,-3.742 -0.195,-3.305 2.079,-4.047 1.576,3.074 1.336,22.53 0,24.799 -4.469,-1.461 -0.587,-5.065 -2.492,-10.739l-4.503 -0.245c-0.099,3.385 1.042,9.147 -1.334,11.398zm79.647 -13.291c3.524,12.215 -8.431,21.003 -10.89,4.514 -2.895,-19.422 9.021,-20.695 10.669,-11.121 -5.483,-1.084 -0.93,-2.375 -6.032,-2.528 -2.284,2.729 -2.409,6.106 -2.16,10.548 0.335,5.97 0.792,8.079 3.723,9.184 2.331,-2.228 2.142,-3.153 2.461,-6.709 -2.514,-2.243 -3.53,0.267 -3.966,-3.678l6.195 -0.21zm-54.661 13.308c-1.917,-1.181 -1.75,1.341 -1.508,-8.58 0.193,-7.891 -1.28,-15.646 2.385,-16.664 2.452,-0.681 6.136,-0.519 7.991,0.773 -1.171,2.665 -3.91,1.886 -7.267,1.96l-0.043 8.074c3.308,1.375 2.913,-0.524 4.063,2.788l-4.243 1.392 -0.376 8.28c-0.491,1.886 -0.139,0.838 -1.002,1.977zm-12.252 -25.043l7.197 -0.314c3.225,0.7 0.653,0.013 2.095,0.886 -1.835,2.683 0.659,0.793 -6.704,1.974l0.185 8.06c2.643,1.118 1.81,-0.362 4.391,1.672 -0.971,1.852 -1.401,1.182 -4.472,2.508l1.481 7.132c0.223,0.065 0.481,0.113 0.724,0.188 3.643,1.109 2.466,0.162 3.433,1.878 -2.763,1.692 -4.809,1.501 -8.525,0.812l0.195 -24.796zm-18.211 21.373c1.283,-0.605 -2.09,-1.762 2.614,-0.372 0.131,3.217 0.506,1.712 -1.307,3.199 -8.163,4.719 -8.894,-8.832 -8.759,-14.458 0.302,-12.621 8.662,-13.535 9.363,-5.191 -5.598,0.427 0.392,-0.503 -5.078,-2.407 -2.028,5.021 -2.59,15.754 1.148,20.163 1.825,-0.397 0.996,0.386 2.019,-0.934zm18.046 -28.09l0.611 1.586c0.071,0.08 4.454,1.548 -3.195,1.792 -6.456,0.207 -0.511,-2.889 -19.773,-0.201 -17.499,2.442 -16.256,-1.501 -23.781,-4.457 -1.163,8.849 -0.347,29.321 1.083,38.566 1.243,8.039 6.927,6.025 14.995,6.025l100.777 -0.169c27.252,-0.128 30.562,2.998 31.359,-9.415 3.3,-51.428 -1.133,-44.005 -37.189,-43.948 -13.06,0.021 -27.035,-0.438 -39.977,0.145 -3.844,5.337 -0.043,8.294 -10.007,9.569 -8.448,1.081 -4.946,4.294 -14.903,0.507zm-12.569 31.743c2.376,-2.251 1.235,-8.013 1.334,-11.398l4.503 0.245c1.905,5.674 -1.977,9.278 2.492,10.739 1.336,-2.269 1.576,-21.725 0,-24.799 -2.274,0.742 -2.023,0.305 -2.079,4.047 -0.013,0.904 0.155,2.587 0.06,3.403 -0.254,2.191 0.298,-0.501 -0.294,1.587 -0.603,2.13 0.026,0.774 -1.019,2.087l-2.498 -0.16c-0.934,-1.22 -0.434,0.049 -0.913,-1.968 -0.856,-3.61 0.466,-5.533 -0.753,-8.845 -3.484,0.46 -2.321,1.223 -2.315,11.478 0.002,2.558 -0.066,5.039 -0.099,7.582 -0.048,3.594 -0.728,4.497 1.581,6.002zm62.476 -2.799c-5.964,0.302 -5.166,-3.813 -4.818,-9.783 0.224,-3.84 0,-9.257 3.973,-9.905 2.899,3.705 2.203,15.359 0.845,19.688zm-3.581 -22.491c-3.486,4.028 -3.851,6.972 -4.077,13.368 -0.203,5.726 0.008,12.851 6.781,12.002 5.632,-0.706 4.744,-8.929 4.654,-13.669 -0.141,-7.463 0.177,-12.081 -7.358,-11.701zm30.221 2.781c2.727,3.997 2.803,14.679 0.83,19.733 -5.607,0.253 -5.005,-3.419 -4.714,-9.152 0.24,-4.728 -0.021,-9.606 3.884,-10.581zm4.692 11.433c0,-6.927 0.265,-9.987 -3.045,-14.07l-4.37 -0.206c-2.774,3.434 -3.032,3.849 -3.643,8.498 -0.674,5.134 -1.919,20.322 7.729,16.57 3.48,-1.354 3.329,-6.682 3.329,-10.792zm-14.161 -2.215l-6.195 0.21c0.436,3.945 1.452,1.435 3.966,3.678 -0.319,3.556 -0.13,4.481 -2.461,6.709 -2.931,-1.105 -3.388,-3.214 -3.723,-9.184 -0.249,-4.442 -0.124,-7.819 2.16,-10.548 5.102,0.153 0.549,1.444 6.032,2.528 -1.648,-9.574 -13.564,-8.301 -10.669,11.121 2.459,16.489 14.414,7.701 10.89,-4.514zm-67.108 13.061c3.716,0.689 5.762,0.88 8.525,-0.812 -0.967,-1.716 0.21,-0.769 -3.433,-1.878 -0.243,-0.075 -0.501,-0.123 -0.724,-0.188l-1.481 -7.132c3.071,-1.326 3.501,-0.656 4.472,-2.508 -2.581,-2.034 -1.748,-0.554 -4.391,-1.672l-0.185 -8.06c7.363,-1.181 4.869,0.709 6.704,-1.974 -1.442,-0.873 1.13,-0.186 -2.095,-0.886l-7.197 0.314 -0.195 24.796zm12.447 0.247c0.863,-1.139 0.511,-0.091 1.002,-1.977l0.376 -8.28 4.243 -1.392c-1.15,-3.312 -0.755,-1.413 -4.063,-2.788l0.043 -8.074c3.357,-0.074 6.096,0.705 7.267,-1.96 -1.855,-1.292 -5.539,-1.454 -7.991,-0.773 -3.665,1.018 -2.192,8.773 -2.385,16.664 -0.242,9.921 -0.409,7.399 1.508,8.58zm37.49 -2.816c1.358,-4.329 2.054,-15.983 -0.845,-19.688 -3.973,0.648 -3.749,6.065 -3.973,9.905 -0.348,5.97 -1.146,10.085 4.818,9.783zm26.64 -19.71c-3.905,0.975 -3.644,5.853 -3.884,10.581 -0.291,5.733 -0.893,9.405 4.714,9.152 1.973,-5.054 1.897,-15.736 -0.83,-19.733zm-93.286 21.683c0.961,-3.783 0.426,-2.254 -1.307,-2.827 -1.023,1.32 -0.194,0.537 -2.019,0.934 -3.738,-4.409 -3.176,-15.142 -1.148,-20.163 5.47,1.904 -0.52,2.834 5.078,2.407 -0.701,-8.344 -9.061,-7.43 -9.363,5.191 -0.135,5.626 0.596,19.177 8.759,14.458zm48.192 0.693c3.491,0.548 6.86,0.99 9.748,-0.909 -1.671,-2.295 0.684,-0.916 -2.937,-1.585 -0.731,-0.135 -2.627,-0.037 -3.937,-0.211l0.034 -20.753c-1.143,-2.453 0.367,-1.013 -2.386,-2.054l-0.522 25.512zm-48.192 -0.693c1.813,-1.487 1.438,0.018 1.307,-3.199 -4.704,-1.39 -1.331,-0.233 -2.614,0.372 1.733,0.573 2.268,-0.956 1.307,2.827z"/>
   <path fill="#FCC690" d="M144.915 115.637c-1.84,4.327 -10.016,4.769 -10.352,0.829 -0.384,-4.489 7.412,-5.197 10.352,-0.829zm16.446 -30.938c7.077,-5.927 21.339,-8.15 19.636,6.57 -1.174,10.152 -20.502,2.823 -19.636,-6.57zm-25.655 -10.536l-0.519 -0.979c-0.15,0.136 -0.322,0.35 -0.406,0.452l-2.404 -1.631c-2.281,3.336 -0.022,2.997 -2.805,4.266l-1.927 0.775 -0.337 -2.76 -1.718 0.292c-0.193,2.244 0.654,0.776 -0.69,2.008 -8.235,-1.803 -11.883,-3.603 -21.687,-2.877 -4.248,0.314 -14.544,2.13 -18.295,4.885 5.867,18.106 8.025,22.419 18.152,34.722 5.492,6.671 20.018,18.166 30.996,21.99l1.216 5.734c-0.69,-11.485 1.902,-20.855 14.876,-18.272 3.947,0.786 8.563,4.412 10.671,6.123 3.04,2.468 5.63,6.382 5.751,12.373l15.202 -2.251c0.019,-4.765 1.316,-8.695 4.532,-10.252 5.397,-2.612 7.394,2.25 12.209,2.751 -1.193,-1.604 -1.002,-1.216 -1.254,-4.024 -2.93,0.199 -0.958,0.575 -2.87,-0.51l2.213 -2.249c-2.246,-0.012 -0.995,0.276 -1.361,-0.876l-1.928 -0.691c0.554,-1.129 0.751,-1.607 1.433,-2.769l-0.348 -1.103c-5.989,4.213 -2.746,-1.554 -1.428,-6.474 7.789,-29.086 3.862,-50.369 -31.635,-45.084 -16.985,2.529 -17.566,6.073 -25.083,8.557l-0.556 -2.126z"/>
   <path fill="#934A36" d="M43.28 256.729l1.258 16.973c0.211,5.273 1.61,11.479 -0.368,15.84 -7.76,2.06 -6.713,-8.066 -6.957,-15.038 -0.246,-7.014 -2.344,-18.466 6.067,-17.775zm154.1 -1.349c6.901,0.23 6.307,7.21 6.142,14.105 -0.113,4.733 0.569,16.029 -2.116,18.518 -6.804,6.309 -5.137,-9.434 -4.904,-13.443 0.255,-4.388 -0.027,-15.511 0.878,-19.18zm-162.301 11.507l0.767 15.138c-0.321,0.162 -0.696,0.037 -0.861,0.399 -0.931,2.037 -0.557,0.345 -1.54,0.679 -0.264,0.09 -2.401,0.595 -2.849,0.686 -9.804,2.002 -25.486,12.539 -28.272,-4.325 -3.454,-20.911 19.096,-12.344 32.755,-12.577zm169.907 14.305l0.322 -15.242c14.12,-0.352 35.065,-9.341 32.531,11.106 -2.023,16.323 -17.206,8.481 -22.328,6.817 -3.81,-1.238 -8.337,-1.448 -10.525,-2.681zm-95.082 -52.44c8.428,-0.152 22.009,-2.411 30.849,-3.602 15.548,-2.095 18.462,0.224 18.193,-16.966l11.205 -3.933c0.265,6.626 -0.119,13.402 0.042,20.093 0.149,6.19 1.26,12.553 1.306,18.116l-54.876 0.132c-1.419,-5.834 -5.159,-10.347 -9.329,-11.899 -1.171,-1.606 -2.435,2.37 -0.762,-2.014l3.372 0.073zm1.258 7.164c2.065,3.075 6.416,10.898 0.941,14.909 -5.911,4.33 -9.44,-2.268 -12.827,-3.688 0.957,3.697 2.323,2.435 3.474,6.681 -8.294,2.232 -6.611,0.371 -11.905,-2.512 0.381,3.037 0.002,1.299 1.65,3.366 9.957,3.787 6.455,0.574 14.903,-0.507 9.964,-1.275 6.163,-4.232 10.007,-9.569 12.942,-0.583 26.917,-0.124 39.977,-0.145 36.056,-0.057 40.489,-7.48 37.189,43.948 -0.797,12.413 -4.107,9.287 -31.359,9.415l-100.777 0.169c-8.068,0 -13.752,2.014 -14.995,-6.025 -1.431,-9.245 -2.246,-29.717 -1.083,-38.566 7.525,2.956 6.282,6.899 23.781,4.457 19.262,-2.688 13.317,0.408 19.773,0.201 7.649,-0.244 3.266,-1.712 3.195,-1.792 -3.812,0.55 -5.061,0.319 -8.187,-1.261 -9.196,-1.31 -18.986,3.098 -28.149,1.038 -17.677,-3.971 -15.2,-25.72 -1.117,-34.333 8.849,-5.412 13.006,-1.755 24.391,-1.409l3.359 8.222c-2.118,1.266 -4.465,1.695 -5.596,3.753 6.569,-1.698 8.407,-3.996 17.822,-3.467 3.574,0.2 6.325,0.886 9.13,2.279 1.544,0.767 2.268,1.237 3.613,2.268l2.79 2.568zm-15.991 -17.56l2.713 8.63 -12.095 0.777 -3.288 -8.208 12.67 -1.199zm2.413 0.147c16.674,-7.153 41.839,-8.723 59.075,-10.091 1.409,15.322 -1.233,13.109 -29.268,16.167 -8.574,0.936 -22.585,3.081 -25.715,2.663 -0.176,-0.024 -0.577,0.08 -0.704,-0.185 -0.129,-0.269 -0.482,-0.112 -0.589,-0.252l-2.799 -8.302zm76.692 24.013c-1.689,-6.609 -3.24,-34.833 -1.512,-41.294 0.949,-3.549 11.589,-12.991 15.48,-27.895 4.992,2.107 3.541,2.252 10.075,1.72 4.217,-0.344 6.849,0.668 11.865,-0.12 0.382,9.409 -5.32,28.075 -8.018,36.593 -3.482,10.99 -11.855,27.629 -12.83,31.544l-15.06 -0.548zm38.413 -71.448c-1.706,1.827 -5.881,2.457 -9.357,2.133 -4.556,-0.425 -6.85,-1.207 -6.644,-5.724 1.898,-1.179 2.801,-0.479 5.959,-0.562 -1.744,-1.571 -3.423,-1.744 -5.289,-2.66 -1.304,-8.186 2.063,-5.013 7.612,-5.163l-3.767 -2.186c-4.473,-2.615 -4.991,-7.042 -0.892,-9.629 -2.171,-1.414 -4.245,1.189 -4.609,3.604 -0.846,5.603 1.693,1.615 -0.106,7.241 -0.679,2.123 -0.662,12.753 0.5,15.696 -9.79,-0.595 -8.24,-9.093 -9.171,-21.087 -0.781,-10.056 -7.31,-14.283 0.46,-22.698 4.946,-0.061 8.394,2.528 10.136,6.346 1.175,2.574 0.638,4.779 1.225,3.122 0.043,-0.124 0.16,0.442 0.279,0.643 6.389,-4.578 15.127,4.059 17.375,9.037 2.504,5.544 3.712,18.602 -3.711,21.887zm-30.907 -32.055l-0.405 0.969c1.952,2.993 3.406,12.02 3.565,16.634 0.314,9.08 2.029,11.656 2.004,14.91l-0.211 1.084c-1.715,6.619 -6.699,13.922 -9.927,18.554 -2.182,3.13 -3.454,5.166 -5.868,8.361 -5.869,7.771 -26.637,6.539 -34.214,7.41 -25.649,2.947 -45.521,15.012 -71.139,9.271 -14.185,-3.179 -29.138,-12.412 -32.163,-23.604l4.049 -2.383c0.715,-1.478 2.07,-4.264 -0.715,-5.058l-6.138 1.616c-0.919,-3.72 -2.135,-4.998 -0.669,-8.026l5.575 -0.52 4.905 -1.195 0.289 -2.16 -11.932 -1.883c-1.698,-3.571 0.154,-10.915 -2.708,-8.746l-0.452 9.005 -7.958 0.405c-4.637,-0.187 -12.352,0.367 -11.721,6.282 5.258,2.166 13.899,-0.98 20.184,-0.389l1.981 8.802c-10.733,5.928 -10.332,10.456 -5.016,10.05 0.6,-0.045 1.762,-0.599 2.46,-0.962 2.44,-1.267 2.431,-1.771 5.229,-2.553 6.996,9.33 7.804,12.681 19.196,18.559l6.889 3.108c1.071,0.649 0.924,0.601 1.574,1.223 -6.438,2.321 -11.654,7.655 -14.447,13.976 -5.458,12.353 1.547,16.544 0.369,21.847 -0.207,0.122 -0.506,0.197 -0.674,0.253l-2.05 0.649c-1.683,0.522 -3.185,0.66 -4.653,2.799 -1.837,2.677 -1.129,4.696 -2.873,7.531 -7.761,0.422 -18.895,-2.568 -24.514,-1.428 -6.983,1.417 -10.906,8.053 -9.211,16.526 4.174,20.864 24.055,5.065 35.535,5.39 1.461,5.498 2.98,6.645 9.534,6.026 1.187,9.116 4.852,8.714 13.641,8.626l124.943 -0.227c8.173,0.099 11.38,-1.126 12.15,-9.003 7.882,0.574 6.514,-2.301 9.492,-6.427 9.353,-0.359 31.864,14.615 34.15,-7.341 2.434,-23.377 -23.112,-13.021 -33.317,-13.096l-0.986 -1.85c-0.082,-0.199 -0.162,-0.426 -0.238,-0.634 -0.867,-2.372 -0.543,-5.465 -5.014,-7.307 -1.028,-0.424 -1.101,-0.329 -1.955,-0.624 -1.316,-0.453 -0.696,1.027 -1.33,-0.493 -0.116,-0.279 -0.458,-0.141 -0.657,-0.27 -2.184,-4.981 -2.521,-4.856 -5.172,-8.298 1.417,-5.02 4.948,-11.682 7.12,-16.618 6.136,-13.949 13.818,-38.701 14.355,-53.618 2.935,-2.46 4.44,-2.708 6.028,-7.052l3.276 -8.834c-1.87,-2.93 -1.104,-0.422 -2.289,-4.033 -3.859,-11.75 -3.04,-6.211 -5.531,-11.895 1.276,-0.729 3.205,-1.918 5.031,-3.147 3.018,-2.031 3.057,-1.349 2.094,-5.173 -3.784,-1.4 -6.788,1.041 -9.797,2.502 -4.081,1.981 -6.197,0.539 -11.143,-0.062l-1.79 -4.96c-4.815,-0.501 -6.812,-5.363 -12.209,-2.751 -3.216,1.557 -4.513,5.487 -4.532,10.252z"/>
   <path fill="#FCC690" d="M174.276 242.516l15.06 0.548c0.975,-3.915 9.348,-20.554 12.83,-31.544 2.698,-8.518 8.4,-27.184 8.018,-36.593 -5.016,0.788 -7.648,-0.224 -11.865,0.12 -6.534,0.532 -5.083,0.387 -10.075,-1.72 -3.891,14.904 -14.531,24.346 -15.48,27.895 -1.728,6.461 -0.177,34.685 1.512,41.294z"/>
   <path fill="#FCC690" d="M84.919 254.997c-2.624,-7.445 15.673,-20.313 26.243,-19.081l-2.79 -2.568c-1.345,-1.031 -2.069,-1.501 -3.613,-2.268 -2.805,-1.393 -5.556,-2.079 -9.13,-2.279 -9.415,-0.529 -11.253,1.769 -17.822,3.467 1.131,-2.058 3.478,-2.487 5.596,-3.753l-3.359 -8.222c-11.385,-0.346 -15.542,-4.003 -24.391,1.409 -14.083,8.613 -16.56,30.362 1.117,34.333 9.163,2.06 18.953,-2.348 28.149,-1.038z"/>
   <path fill="#934A36" d="M50.065 77.128c-27.905,3.134 -38.187,-23.383 -26.362,-46.363 15.603,-30.322 52.665,-15.232 56.777,-17.404 4.04,-2.134 22.779,-20.986 43.628,-3.937 3.52,2.879 1.502,3.437 6.537,3.501 3.691,0.048 5.784,-0.371 9.758,0.25 26.901,4.198 21.926,41.606 -1.607,44.005l-1.653 -7.061c3.57,-1.285 4.525,-1.911 5.192,-4.419 -4.62,2.579 -7.125,4.975 -14.132,5.325 -4.986,0.249 -12.559,-3.108 -15.631,-0.494 -13.231,11.259 -23.453,-0.244 -29.306,-0.797 -3.531,4.191 -3.146,5.203 -8.658,8.703 -7.264,4.614 -17.802,7.771 -26.713,5.814 -5.389,-1.183 -7.641,-3.344 -11.122,-5.16 2.874,3.918 7.67,6.611 13.753,7.518l-0.461 10.519zm-8.447 2.493l8.851 0.008c0.012,0.766 0.276,3.382 0.272,3.449 -0.285,4.899 0.807,1.689 -1.627,3.388 -28.096,4.656 -54.76,16.901 -34.674,48.908 2.932,4.672 10.634,17.046 15.848,18.201 -1.57,-7.191 -28.777,-29.833 -18.132,-46.612 12.683,-19.993 48.051,-17.481 49.382,-18.083 -0.77,-2.42 0.584,-1.618 -3.347,-2.349 -2.954,-0.55 -2.394,0.383 -5.014,-0.996l-0.539 -18.123c8.313,-1.457 25.329,-2.528 31.165,-14.648 6.363,1.768 18.009,10.978 31.103,-1.734 10.904,2.332 8.374,2.602 20.193,0.827l5.031 19.385 -4.424 2.921 0.556 2.126c7.517,-2.484 8.098,-6.028 25.083,-8.557 35.497,-5.285 39.424,15.998 31.635,45.084 -1.318,4.92 -4.561,10.687 1.428,6.474 0.086,-8.751 11.399,-36.073 -2.484,-48.37 -14.422,-12.775 -39.415,-3.034 -49.818,-0.93l-2.497 -10.283c28.579,-7.258 26.259,-40.5 6.688,-47.493 -5.284,-1.888 -15.454,-0.946 -18.38,-2.4 -1.309,-0.65 -19.715,-20.768 -44.894,-1.459 -6.803,5.218 -7.113,2.117 -16.446,1.06 -40.828,-4.622 -55.955,29.677 -47.981,52.441 3.478,9.929 10.961,15.467 23.022,17.765z"/>
   <path fill="#FFFAED" d="M109.904 228.752c-0.243,0.141 -0.523,0.322 -0.712,0.454l-1.898 1.487c4.17,1.552 7.91,6.065 9.329,11.899l54.876 -0.132c-0.046,-5.563 -1.157,-11.926 -1.306,-18.116 -0.161,-6.691 0.223,-13.467 -0.042,-20.093l-11.205 3.933c0.269,17.19 -2.645,14.871 -18.193,16.966 -8.84,1.191 -22.421,3.45 -30.849,3.602z"/>
   <path fill="#FCC690" d="M59.224 181.677c-0.071,-2.67 1.047,-2.111 2.379,-2.457 1.33,2.1 1.561,2.204 0,4.7 -1.617,-0.382 -2.321,-0.068 -2.379,-2.243zm-5.796 -0.081c0.28,-4.686 0.384,-6.624 4.843,-6.849 1.324,3.89 -0.797,5.932 -4.843,6.849zm-4.337 -4.071c0.051,-3.674 -0.116,-3.727 3.252,-4.018 0.214,3.786 0.176,3.669 -3.252,4.018zm-8.371 -2.649l-0.289 2.16 -4.905 1.195 4.084 -0.338c-0.871,3.96 -0.592,4.726 -2.852,7.268 2.785,0.794 1.43,3.58 0.715,5.058 3.891,0.353 1.423,2.798 7.271,6.692 10.016,6.672 24.979,1.489 25.734,-10.302 0.529,-8.264 -5.014,-15.122 -10.181,-17.825 -10.021,-5.24 -15.924,5.169 -19.577,6.092z"/>
   <path fill="#FCC690" d="M97.584 218.503l2.799 8.302c0.107,0.14 0.46,-0.017 0.589,0.252 0.127,0.265 0.528,0.161 0.704,0.185 3.13,0.418 17.141,-1.727 25.715,-2.663 28.035,-3.058 30.677,-0.845 29.268,-16.167 -17.236,1.368 -42.401,2.938 -59.075,10.091z"/>
   <path fill="#934A36" d="M137.98 133.488c-0.438,-1.019 -0.876,-0.834 -0.512,-2.646 0.498,-2.477 1.16,-1.725 1.591,-2.132 3.802,1.511 1.934,5.057 -1.079,4.778zm-2.698 7.552c2.697,9.355 3.132,14.439 15.068,10.942 7.231,-2.118 13.125,-5.802 16.23,-10.718 -0.121,-5.991 -2.711,-9.905 -5.751,-12.373 -2.108,-1.711 -6.724,-5.337 -10.671,-6.123 -12.974,-2.583 -15.566,6.787 -14.876,18.272z"/>
   <path fill="#934A36" d="M82.77 140.958l-0.261 1.405c-0.313,-5.246 0.469,-0.088 -1.748,-2.474l-0.264 3.11c-3.425,0.195 -2.553,-0.146 -4.708,-2.365l0.809 -2.782c0,-2.321 -0.558,-1.715 1.816,-1.674 -13.498,-5.681 -21.059,12.08 -20.651,21.125 0.332,7.357 7.949,8 14.692,7.858 8.073,-0.17 12.286,-1.583 16.139,-6.881 0.509,-5.549 -1.674,-14.829 -5.824,-17.322z"/>
   <path fill="#FCC690" d="M200.311 147.277c10.461,-0.069 15.302,14.109 12.378,23.791 7.423,-3.285 6.215,-16.343 3.711,-21.887 -2.248,-4.978 -10.986,-13.615 -17.375,-9.037 -0.119,-0.201 -0.236,-0.767 -0.279,-0.643 -0.587,1.657 -0.05,-0.548 -1.225,-3.122 -1.742,-3.818 -5.19,-6.407 -10.136,-6.346 -7.77,8.415 -1.241,12.642 -0.46,22.698 0.931,11.994 -0.619,20.492 9.171,21.087 -1.162,-2.943 -1.179,-13.573 -0.5,-15.696 1.799,-5.626 -0.74,-1.638 0.106,-7.241 0.364,-2.415 2.438,-5.018 4.609,-3.604z"/>
   <path fill="#DCAB8C" d="M35.079 266.887c-13.659,0.233 -36.209,-8.334 -32.755,12.577 2.786,16.864 18.468,6.327 28.272,4.325 0.448,-0.091 2.585,-0.596 2.849,-0.686 0.983,-0.334 0.609,1.358 1.54,-0.679 0.165,-0.362 0.54,-0.237 0.861,-0.399l-0.767 -15.138z"/>
   <path fill="#DCAB8C" d="M204.986 281.192c2.188,1.233 6.715,1.443 10.525,2.681 5.122,1.664 20.305,9.506 22.328,-6.817 2.534,-20.447 -18.411,-11.458 -32.531,-11.106l-0.322 15.242z"/>
   <path fill="#FCC690" d="M172.133 158.525c0.679,2.238 -0.125,1.975 -0.593,2.727 -3.234,-0.752 -2.814,-1.457 -2.603,-4.681 1.508,0.223 2.448,-0.506 3.196,1.954zm-2.009 -7.534c4.524,0.193 6.824,1.398 6.92,5.309 -4.599,0.621 -6.046,-1.334 -6.92,-5.309zm9.67 -0.226c-3.646,0.305 -3.528,0.768 -4.097,-2.519 2.906,-1.399 3.585,-0.474 4.097,2.519zm6.941 21.845l0.211 -1.084c0.025,-3.254 -1.69,-5.83 -2.004,-14.91 -0.159,-4.614 -1.613,-13.641 -3.565,-16.634l0.212 3.205c-6.985,-0.809 -10.034,-1.337 -14.609,3.016 -6.995,6.653 -7.589,22.679 3.554,27.287 7.619,3.151 10.5,-0.4 16.201,-0.88z"/>
   <path fill="#FFFAED" d="M84.919 254.997c3.126,1.58 4.375,1.811 8.187,1.261l-0.611 -1.586c-1.648,-2.067 -1.269,-0.329 -1.65,-3.366 5.294,2.883 3.611,4.744 11.905,2.512 -1.151,-4.246 -2.517,-2.984 -3.474,-6.681 3.387,1.42 6.916,8.018 12.827,3.688 5.475,-4.011 1.124,-11.834 -0.941,-14.909 -10.57,-1.232 -28.867,11.636 -26.243,19.081z"/>
   <path fill="#FFFAED" d="M212.689 171.068c2.924,-9.682 -1.917,-23.86 -12.378,-23.791 -4.099,2.587 -3.581,7.014 0.892,9.629l3.767 2.186c-5.549,0.15 -8.916,-3.023 -7.612,5.163 1.866,0.916 3.545,1.089 5.289,2.66 -3.158,0.083 -4.061,-0.617 -5.959,0.562 -0.206,4.517 2.088,5.299 6.644,5.724 3.476,0.324 7.651,-0.306 9.357,-2.133z"/>
   <path fill="#DCAB8C" d="M32.778 111.397c-4.119,1.649 -6.982,3.356 -3.959,12.062 8.658,24.928 27.879,-21.642 3.959,-12.062z"/>
   <path fill="#DCAB8C" d="M161.361 84.699c-0.866,9.393 18.462,16.722 19.636,6.57 1.703,-14.72 -12.559,-12.497 -19.636,-6.57z"/>
   <path fill="#DC8B64" d="M43.28 256.729c-8.411,-0.691 -6.313,10.761 -6.067,17.775 0.244,6.972 -0.803,17.098 6.957,15.038 1.978,-4.361 0.579,-10.567 0.368,-15.84l-1.258 -16.973z"/>
   <path fill="#DC8B64" d="M197.38 255.38c-0.905,3.669 -0.623,14.792 -0.878,19.18 -0.233,4.009 -1.9,19.752 4.904,13.443 2.685,-2.489 2.003,-13.785 2.116,-18.518 0.165,-6.895 0.759,-13.875 -6.142,-14.105z"/>
   <path fill="#934A36" d="M84.918 78.594c3.751,-2.755 14.047,-4.571 18.295,-4.885 9.804,-0.726 13.452,1.074 21.687,2.877 1.344,-1.232 0.497,0.236 0.69,-2.008 -7.764,-4.293 -21.831,-4.251 -31.131,-2.126 -4.708,1.076 -22.27,6.604 -23.46,12.099 4.151,0.564 9.1,-4.702 13.919,-5.957z"/>
   <path fill="#934A36" d="M116.296 154.099c-2.088,-2.477 -0.793,-3.291 -3.889,-4.281 -5.073,7.824 -0.236,7.137 -7.921,6.135 -1.227,-0.16 -1.834,-0.499 -3.541,0.654 0.093,0.158 0.8,4.096 7.337,2.974 2.426,-0.416 3.86,-2.58 5.133,-4.145 3.914,2.214 5.891,2.545 10.653,0.039 1.853,2.913 1.356,4.59 5.366,3.179 0.373,-5.375 -5.008,-1.954 -3.278,-11.003 0.038,-0.192 0.501,-2.043 0.501,-2.055 -0.014,-5.114 1.34,4.067 -0.211,-1.204 -0.045,-0.154 -0.266,-0.42 -0.316,-0.54 -0.053,-0.126 -0.251,-0.356 -0.397,-0.517 -5.857,3.412 0.935,12.093 -9.437,10.764z"/>
   <polygon fill="#FFFAED" points="82.501,219.555 85.789,227.763 97.884,226.986 95.171,218.356 "/>
   <path fill="#FFFAED" d="M36.758 185.161c2.26,-2.542 1.981,-3.308 2.852,-7.268l-4.084 0.338 -5.575 0.52c-1.466,3.028 -0.25,4.306 0.669,8.026l6.138 -1.616z"/>
   <path fill="#FFFAED" d="M144.915 115.637c-2.94,-4.368 -10.736,-3.66 -10.352,0.829 0.336,3.94 8.512,3.498 10.352,-0.829z"/>
   <path fill="#FCC690" d="M67.14 129.28c4.192,1.341 11.897,-1.128 8.848,-4.7 -2.703,-3.164 -9.401,0.251 -8.848,4.7z"/>
   <path fill="#FDDCCB" d="M177.044 156.3c-0.096,-3.911 -2.396,-5.116 -6.92,-5.309 0.874,3.975 2.321,5.93 6.92,5.309z"/>
   <path fill="#FDDCCB" d="M53.428 181.596c4.046,-0.917 6.167,-2.959 4.843,-6.849 -4.459,0.225 -4.563,2.163 -4.843,6.849z"/>
   <path fill="#934A36" d="M65.495 86.889c-0.18,-2.703 -0.306,-2.6 -2.279,-4.653 -2.192,-2.279 -2.089,-2.03 -5.136,-2.666 1.428,3.449 4.148,6.031 7.415,7.319z"/>
   <path fill="#934A36" d="M18.881 161.859l6.886 -0.114c1.873,-0.436 0.853,-0.257 1.785,-0.957 -2.572,-2.617 -6.753,-3.117 -8.671,1.071z"/>
   <path fill="#FFFAED" d="M80.761 139.889c-2.932,-1.525 0.204,-1.116 -4.163,-2.037l-0.809 2.782c2.155,2.219 1.283,2.56 4.708,2.365l0.264 -3.11z"/>
   <path fill="#934A36" d="M197.269 127.488l5.901 0.04c-1.626,-2.611 -2.417,-2.612 -6.558,-2.799l-2.213 2.249c1.912,1.085 -0.06,0.709 2.87,0.51z"/>
   <path fill="#934A36" d="M28.817 157.976c-0.964,-3.099 -0.058,-2.119 -2.43,-3.735 -0.843,-0.575 -2.85,-1.317 -3.974,-1.645 0.542,3.304 2.665,4.578 6.404,5.38z"/>
   <path fill="#934A36" d="M194.756 120.393c-0.682,1.162 -0.879,1.64 -1.433,2.769l1.928 0.691c2.107,-1.583 3.324,-2.562 4.462,-4.927l-4.957 1.467z"/>
   <path fill="#FFFAED" d="M137.98 133.488c3.013,0.279 4.881,-3.267 1.079,-4.778 -0.431,0.407 -1.093,-0.345 -1.591,2.132 -0.364,1.812 0.074,1.627 0.512,2.646z"/>
   <path fill="#FDDCCB" d="M171.54 161.252c0.468,-0.752 1.272,-0.489 0.593,-2.727 -0.748,-2.46 -1.688,-1.731 -3.196,-1.954 -0.211,3.224 -0.631,3.929 2.603,4.681z"/>
   <path fill="#FDDCCB" d="M61.603 183.92c1.561,-2.496 1.33,-2.6 0,-4.7 -1.332,0.346 -2.45,-0.213 -2.379,2.457 0.058,2.175 0.762,1.861 2.379,2.243z"/>
   <path fill="#6C3427" d="M80.761 139.889c2.217,2.386 1.435,-2.772 1.748,2.474l0.261 -1.405c-0.699,-3.021 -1.24,-2.769 -4.356,-4.78 -2.374,-0.041 -1.816,-0.647 -1.816,1.674 4.367,0.921 1.231,0.512 4.163,2.037z"/>
   <path fill="#934A36" d="M132.377 72.005l2.404 1.631c0.084,-0.102 0.256,-0.316 0.406,-0.452l0.573 -3.225c0.56,-3.213 0.569,-1.34 -0.803,-1.793 -2.052,1.734 -1.552,1.311 -2.58,3.839z"/>
   <path fill="#FDDCCB" d="M49.091 177.525c3.428,-0.349 3.466,-0.232 3.252,-4.018 -3.368,0.291 -3.201,0.344 -3.252,4.018z"/>
   <path fill="#FDDCCB" d="M175.697 148.246c0.569,3.287 0.451,2.824 4.097,2.519 -0.512,-2.993 -1.191,-3.918 -4.097,-2.519z"/>
   <path fill="#934A36" d="M68.882 85.968c1.804,-3.125 0.375,-4.084 -2.694,-5.218 0.728,3.73 0.397,3.518 2.694,5.218z"/>
   <path fill="#934A36" d="M127.308 74.286l0.337 2.76 1.927 -0.775 -0.196 -4.213c-2.291,1.064 -1.131,-1.985 -2.068,2.228z"/>
   <path fill="#DCAB8C" d="M107.294 230.693l1.898 -1.487c0.189,-0.132 0.469,-0.313 0.712,-0.454l-3.372 -0.073c-1.673,4.384 -0.409,0.408 0.762,2.014z"/>
   <path fill="#DCAB8C" d="M135.76 69.959c1.595,-2.359 0.707,-2.647 0.706,-2.658l-1.509 0.865c1.372,0.453 1.363,-1.42 0.803,1.793z"/>
   <path fill="#FFFAED" fill-rule="nonzero" d="M53.573 282.545l0.266 -3.398 0.352 -6.634 0.144 -4.691c0.009,-0.507 0.014,-1.01 0.014,-1.516 0,-0.381 -0.005,-1 -0.014,-1.869 1.163,0.027 2.097,0.04 2.8,0.04 0.676,0 1.605,-0.022 2.782,-0.058 1.18,-0.041 2.177,-0.064 2.998,-0.064 1.177,0 2.051,0.077 2.615,0.227 0.567,0.149 1.081,0.389 1.537,0.71 0.46,0.326 0.838,0.701 1.136,1.136 0.297,0.434 0.523,0.928 0.672,1.479 0.148,0.553 0.225,1.118 0.225,1.693 0,1.185 -0.284,2.271 -0.856,3.253 -0.573,0.982 -1.376,1.715 -2.412,2.204 -1.037,0.484 -2.205,0.728 -3.495,0.728 -0.477,0 -1.028,-0.054 -1.65,-0.163 -0.067,-0.402 -0.203,-1.004 -0.392,-1.805 -0.194,-0.801 -0.352,-1.394 -0.473,-1.779 0.388,0.073 0.789,0.109 1.208,0.109 0.888,0 1.546,-0.217 1.984,-0.647 0.433,-0.43 0.649,-0.955 0.649,-1.574 0,-0.304 -0.05,-0.571 -0.144,-0.806 -0.099,-0.235 -0.253,-0.425 -0.465,-0.579 -0.207,-0.149 -0.441,-0.244 -0.698,-0.29 -0.253,-0.045 -0.546,-0.068 -0.87,-0.068 -0.316,0 -0.645,0.009 -0.988,0.027l-1.109 0.078c-0.113,1.705 -0.198,3.606 -0.262,5.692 -0.108,3.801 -0.166,6.081 -0.166,6.841l0 1.724 -2.633 -0.027c-0.37,0 -1.29,0.009 -2.755,0.027z"/>
   <path id="_1" fill="#FFFAED" fill-rule="nonzero" d="M71.864 272.853c0.166,-0.869 0.27,-1.466 0.315,-1.796 0.045,-0.326 0.118,-0.842 0.212,-1.543 2.534,-0.561 4.712,-0.842 6.528,-0.842 1.037,0 1.988,0.118 2.85,0.353 0.861,0.231 1.532,0.611 2.015,1.131 0.482,0.521 0.726,1.267 0.726,2.24 0,0.493 -0.068,1.606 -0.199,3.339 -0.13,1.729 -0.229,4 -0.297,6.81 -0.866,-0.018 -1.727,-0.027 -2.579,-0.027 -0.83,0 -1.713,0.009 -2.646,0.027 0.121,-0.973 0.252,-2.982 0.401,-6.027 -0.334,0.163 -0.595,0.281 -0.785,0.348 -0.189,0.073 -0.518,0.181 -0.991,0.326 -0.478,0.145 -0.848,0.263 -1.114,0.362 -0.266,0.1 -0.501,0.227 -0.699,0.38 -0.198,0.15 -0.338,0.308 -0.419,0.471 -0.086,0.158 -0.126,0.339 -0.126,0.538 0,0.304 0.121,0.566 0.361,0.783 0.238,0.213 0.617,0.322 1.14,0.322 0.185,0 0.383,-0.014 0.6,-0.046 0.212,-0.031 0.505,-0.104 0.874,-0.226 -0.257,0.67 -0.563,1.647 -0.919,2.932 -0.758,0.127 -1.475,0.19 -2.151,0.19 -1.091,0 -2.002,-0.154 -2.728,-0.457 -0.726,-0.307 -1.284,-0.801 -1.677,-1.479 -0.392,-0.684 -0.586,-1.363 -0.586,-2.046 0,-0.416 0.072,-0.823 0.216,-1.222 0.145,-0.398 0.37,-0.787 0.681,-1.167 0.307,-0.38 0.668,-0.706 1.078,-0.972 0.415,-0.272 0.978,-0.525 1.691,-0.765 0.716,-0.24 1.623,-0.462 2.723,-0.675 0.455,-0.09 0.874,-0.185 1.258,-0.285 0.378,-0.104 0.653,-0.19 0.816,-0.267 0.162,-0.077 0.293,-0.162 0.392,-0.262 0.104,-0.104 0.175,-0.208 0.216,-0.317 0.045,-0.113 0.068,-0.226 0.068,-0.348 0,-0.339 -0.14,-0.602 -0.42,-0.783 -0.279,-0.185 -0.694,-0.276 -1.235,-0.276 -1.51,0 -3.372,0.425 -5.59,1.276z"/>
   <path id="_2" fill="#FFFAED" fill-rule="nonzero" d="M86.864 282.545c0.256,-2.009 0.451,-4.226 0.585,-6.656 0.136,-2.425 0.222,-4.724 0.244,-6.891 1.06,0.018 1.975,0.027 2.741,0.027 0.893,0 1.749,-0.009 2.57,-0.027l-0.117 1.805c0.288,-0.326 0.536,-0.583 0.748,-0.769 0.212,-0.19 0.473,-0.376 0.784,-0.552 0.316,-0.181 0.645,-0.326 0.997,-0.443 0.351,-0.113 0.735,-0.204 1.154,-0.267 0.419,-0.068 0.857,-0.1 1.312,-0.1 0.631,0 1.249,0.068 1.853,0.204 0.6,0.135 1.105,0.33 1.511,0.583 0.401,0.249 0.739,0.562 1.014,0.937 0.271,0.375 0.451,0.778 0.541,1.208 0.085,0.43 0.131,0.878 0.131,1.335 0,0.335 -0.037,1.063 -0.108,2.176l-0.222 4.801c-0.045,0.95 -0.067,1.824 -0.067,2.629 -0.893,-0.018 -1.723,-0.027 -2.498,-0.027 -1.05,0 -2.006,0.009 -2.867,0.027 0.081,-0.805 0.171,-2 0.261,-3.588 0.091,-1.588 0.14,-2.706 0.14,-3.353 0,-0.996 -0.194,-1.688 -0.577,-2.081 -0.383,-0.394 -0.87,-0.588 -1.452,-0.588 -0.513,0 -0.996,0.167 -1.451,0.502 -0.456,0.339 -0.803,0.823 -1.051,1.466 -0.248,0.642 -0.424,1.697 -0.523,3.163 -0.103,1.466 -0.172,2.959 -0.207,4.479 -0.88,-0.018 -1.741,-0.027 -2.579,-0.027 -0.879,0 -1.835,0.009 -2.867,0.027z"/>
   <path id="_3" fill="#FFFAED" fill-rule="nonzero" d="M106.628 272.853c0.167,-0.869 0.271,-1.466 0.316,-1.796 0.045,-0.326 0.117,-0.842 0.212,-1.543 2.534,-0.561 4.711,-0.842 6.528,-0.842 1.037,0 1.988,0.118 2.849,0.353 0.862,0.231 1.533,0.611 2.016,1.131 0.482,0.521 0.726,1.267 0.726,2.24 0,0.493 -0.068,1.606 -0.199,3.339 -0.13,1.729 -0.23,4 -0.297,6.81 -0.866,-0.018 -1.727,-0.027 -2.579,-0.027 -0.83,0 -1.713,0.009 -2.646,0.027 0.121,-0.973 0.252,-2.982 0.401,-6.027 -0.334,0.163 -0.595,0.281 -0.785,0.348 -0.189,0.073 -0.519,0.181 -0.992,0.326 -0.478,0.145 -0.847,0.263 -1.113,0.362 -0.266,0.1 -0.501,0.227 -0.699,0.38 -0.198,0.15 -0.338,0.308 -0.42,0.471 -0.085,0.158 -0.125,0.339 -0.125,0.538 0,0.304 0.121,0.566 0.36,0.783 0.239,0.213 0.618,0.322 1.141,0.322 0.184,0 0.383,-0.014 0.599,-0.046 0.212,-0.031 0.506,-0.104 0.875,-0.226 -0.257,0.67 -0.564,1.647 -0.92,2.932 -0.757,0.127 -1.474,0.19 -2.15,0.19 -1.091,0 -2.002,-0.154 -2.728,-0.457 -0.726,-0.307 -1.285,-0.801 -1.677,-1.479 -0.392,-0.684 -0.586,-1.363 -0.586,-2.046 0,-0.416 0.072,-0.823 0.216,-1.222 0.145,-0.398 0.37,-0.787 0.681,-1.167 0.307,-0.38 0.667,-0.706 1.077,-0.972 0.415,-0.272 0.979,-0.525 1.691,-0.765 0.717,-0.24 1.624,-0.462 2.723,-0.675 0.456,-0.09 0.875,-0.185 1.258,-0.285 0.379,-0.104 0.654,-0.19 0.816,-0.267 0.163,-0.077 0.293,-0.162 0.392,-0.262 0.104,-0.104 0.176,-0.208 0.217,-0.317 0.045,-0.113 0.068,-0.226 0.068,-0.348 0,-0.339 -0.14,-0.602 -0.42,-0.783 -0.279,-0.185 -0.694,-0.276 -1.235,-0.276 -1.511,0 -3.372,0.425 -5.591,1.276z"/>
   <path id="_4" fill="#FFFAED" fill-rule="nonzero" d="M136.641 282.545c-0.942,-0.018 -1.726,-0.027 -2.353,-0.027 -0.708,0 -1.565,0.009 -2.57,0.027l0.077 -1.674c-0.343,0.335 -0.645,0.606 -0.897,0.814 -0.257,0.209 -0.587,0.408 -0.988,0.602 -0.401,0.195 -0.829,0.344 -1.294,0.453 -0.459,0.104 -0.937,0.158 -1.433,0.158 -0.844,0 -1.637,-0.154 -2.372,-0.466 -0.735,-0.308 -1.361,-0.747 -1.88,-1.317 -0.518,-0.57 -0.906,-1.248 -1.163,-2.027 -0.257,-0.783 -0.383,-1.597 -0.383,-2.434 0,-1.195 0.234,-2.362 0.703,-3.503 0.464,-1.139 1.077,-2.036 1.83,-2.687 0.758,-0.656 1.61,-1.118 2.557,-1.389 0.947,-0.267 1.975,-0.403 3.079,-0.403 0.73,0 1.587,0.063 2.565,0.19 0.068,-1.054 0.108,-2.529 0.131,-4.425 1.082,0.018 1.966,0.027 2.651,0.027 0.888,0 1.781,-0.009 2.687,-0.027 -0.248,2.624 -0.469,5.832 -0.658,9.62 -0.19,3.782 -0.289,6.615 -0.289,8.488zm-4.702 -10.235c-0.469,-0.109 -0.911,-0.163 -1.326,-0.163 -0.861,0 -1.591,0.168 -2.191,0.498 -0.599,0.33 -1.064,0.846 -1.388,1.552 -0.32,0.701 -0.483,1.393 -0.483,2.072 0,0.516 0.09,0.978 0.271,1.385 0.185,0.412 0.46,0.737 0.838,0.977 0.375,0.24 0.794,0.358 1.254,0.358 0.487,0 0.928,-0.136 1.334,-0.412 0.402,-0.272 0.726,-0.674 0.979,-1.204 0.252,-0.529 0.428,-1.163 0.518,-1.891 0.095,-0.728 0.158,-1.787 0.194,-3.172z"/>
   <path id="_5" fill="#FFFAED" fill-rule="nonzero" d="M152.701 278.554c-0.113,0.53 -0.33,1.806 -0.65,3.828 -1.023,0.208 -1.884,0.344 -2.583,0.412 -0.699,0.068 -1.402,0.104 -2.119,0.104 -1.051,0 -2.02,-0.072 -2.899,-0.217 -0.883,-0.145 -1.645,-0.407 -2.286,-0.778 -0.64,-0.367 -1.177,-0.828 -1.609,-1.38 -0.433,-0.552 -0.762,-1.209 -0.988,-1.969 -0.225,-0.76 -0.338,-1.543 -0.338,-2.344 0,-1.131 0.226,-2.239 0.677,-3.321 0.446,-1.081 1.027,-1.927 1.735,-2.534 0.713,-0.61 1.528,-1.045 2.453,-1.298 0.924,-0.258 1.876,-0.385 2.845,-0.385 1.001,0 1.961,0.118 2.872,0.353 0.915,0.231 1.685,0.642 2.321,1.222 0.636,0.583 1.087,1.24 1.357,1.972 0.266,0.734 0.401,1.525 0.401,2.372 0,0.506 -0.053,1.063 -0.161,1.683l-9.292 0.013c-0.009,0.141 -0.014,0.267 -0.014,0.385 0,0.95 0.343,1.651 1.024,2.104 0.68,0.448 1.51,0.674 2.493,0.674 0.581,0 1.249,-0.068 1.997,-0.203 0.744,-0.136 1.668,-0.367 2.764,-0.693zm-8.161 -4.289l4.373 0c0.01,-0.15 0.014,-0.276 0.014,-0.385 0,-0.457 -0.081,-0.851 -0.244,-1.176 -0.166,-0.326 -0.401,-0.561 -0.703,-0.711 -0.307,-0.149 -0.649,-0.226 -1.028,-0.226 -0.265,0 -0.518,0.041 -0.766,0.127 -0.248,0.081 -0.473,0.208 -0.672,0.371 -0.198,0.163 -0.365,0.348 -0.496,0.561 -0.13,0.208 -0.23,0.416 -0.293,0.611 -0.059,0.199 -0.121,0.475 -0.185,0.828z"/>
   <path id="_6" fill="#FFFAED" fill-rule="nonzero" d="M155.59 282.545l0.42 -5.891 0.135 -3.385c0.009,-0.61 0.013,-1.231 0.013,-1.869 0,-0.647 -0.009,-1.448 -0.026,-2.402 1.064,0.018 1.911,0.027 2.533,0.027 0.735,0 1.574,-0.009 2.525,-0.027l-0.059 1.516c0.348,-0.39 0.631,-0.679 0.853,-0.869 0.221,-0.19 0.468,-0.362 0.752,-0.516 0.284,-0.154 0.582,-0.271 0.889,-0.344 0.311,-0.077 0.631,-0.113 0.969,-0.113 0.316,0 0.671,0.045 1.059,0.136 0.009,0.964 0.032,1.756 0.068,2.385l0.095 2.04c-0.487,-0.145 -0.943,-0.217 -1.366,-0.217 -0.533,0 -0.988,0.077 -1.371,0.231 -0.383,0.154 -0.726,0.389 -1.023,0.705 -0.294,0.313 -0.532,0.702 -0.708,1.172 -0.176,0.466 -0.302,1.209 -0.37,2.227 -0.072,1.013 -0.108,2.176 -0.108,3.484 0,0.461 0.018,1.031 0.054,1.71 -0.857,-0.018 -1.718,-0.027 -2.579,-0.027 -0.857,0 -1.776,0.009 -2.755,0.027z"/>
   <path id="_7" fill="#FFFAED" fill-rule="nonzero" d="M167.998 267.315c0.054,-1.05 0.08,-1.878 0.08,-2.489 0,-0.177 -0.004,-0.416 -0.013,-0.715 1.064,0.018 1.952,0.027 2.674,0.027 0.992,0 1.862,-0.009 2.61,-0.027 -0.027,0.272 -0.045,0.502 -0.054,0.688l-0.077 1.642c-0.018,0.245 -0.027,0.539 -0.027,0.874 -0.87,-0.018 -1.704,-0.027 -2.507,-0.027 -0.825,0 -1.722,0.009 -2.686,0.027zm-0.839 15.23c0.122,-1.081 0.212,-1.968 0.271,-2.665 0.063,-0.701 0.121,-1.593 0.175,-2.683 0.059,-1.086 0.109,-2.29 0.149,-3.606 0.045,-1.322 0.081,-2.851 0.104,-4.593 1.145,0.018 2.06,0.027 2.745,0.027 0.627,0 1.524,-0.009 2.696,-0.027 -0.144,1.67 -0.247,3.14 -0.306,4.407 -0.063,1.262 -0.104,2.602 -0.122,4.018 -0.031,2.511 -0.049,4.222 -0.049,5.122 -1.051,-0.018 -1.953,-0.027 -2.714,-0.027 -0.749,0 -1.732,0.009 -2.949,0.027z"/>
   <path id="_8" fill="#FFFAED" fill-rule="nonzero" d="M176.924 272.853c0.167,-0.869 0.271,-1.466 0.316,-1.796 0.045,-0.326 0.117,-0.842 0.212,-1.543 2.533,-0.561 4.711,-0.842 6.528,-0.842 1.037,0 1.988,0.118 2.849,0.353 0.861,0.231 1.533,0.611 2.015,1.131 0.483,0.521 0.726,1.267 0.726,2.24 0,0.493 -0.067,1.606 -0.198,3.339 -0.131,1.729 -0.23,4 -0.298,6.81 -0.865,-0.018 -1.726,-0.027 -2.579,-0.027 -0.829,0 -1.713,0.009 -2.646,0.027 0.122,-0.973 0.252,-2.982 0.401,-6.027 -0.333,0.163 -0.595,0.281 -0.784,0.348 -0.19,0.073 -0.519,0.181 -0.992,0.326 -0.478,0.145 -0.847,0.263 -1.114,0.362 -0.266,0.1 -0.5,0.227 -0.698,0.38 -0.199,0.15 -0.338,0.308 -0.42,0.471 -0.085,0.158 -0.126,0.339 -0.126,0.538 0,0.304 0.122,0.566 0.361,0.783 0.239,0.213 0.617,0.322 1.14,0.322 0.185,0 0.384,-0.014 0.6,-0.046 0.212,-0.031 0.505,-0.104 0.874,-0.226 -0.256,0.67 -0.563,1.647 -0.919,2.932 -0.758,0.127 -1.474,0.19 -2.15,0.19 -1.092,0 -2.002,-0.154 -2.728,-0.457 -0.726,-0.307 -1.285,-0.801 -1.677,-1.479 -0.392,-0.684 -0.586,-1.363 -0.586,-2.046 0,-0.416 0.072,-0.823 0.216,-1.222 0.144,-0.398 0.37,-0.787 0.681,-1.167 0.306,-0.38 0.667,-0.706 1.077,-0.972 0.415,-0.272 0.978,-0.525 1.691,-0.765 0.716,-0.24 1.623,-0.462 2.723,-0.675 0.455,-0.09 0.875,-0.185 1.258,-0.285 0.379,-0.104 0.654,-0.19 0.816,-0.267 0.162,-0.077 0.293,-0.162 0.392,-0.262 0.104,-0.104 0.176,-0.208 0.216,-0.317 0.046,-0.113 0.068,-0.226 0.068,-0.348 0,-0.339 -0.139,-0.602 -0.419,-0.783 -0.279,-0.185 -0.694,-0.276 -1.235,-0.276 -1.511,0 -3.373,0.425 -5.591,1.276z"/>
  </g>
 </g>
</svg>
